<svg xmlns="http://www.w3.org/2000/svg" width="1150" height="23" viewBox="0 0 1150 23">
  <path fill="#E6E7E8" d="M1150 23c-9.02 0-13.73-4.6-17.5-8.28-3.43-3.32-5.9-5.72-11.25-5.72-5.36 0-7.82 2.4-11.23 5.72-3.8 3.7-8.5 8.28-17.52 8.28s-13.72-4.6-17.5-8.28c-3.42-3.32-5.9-5.72-11.24-5.72s-7.83 2.4-11.24 5.72c-3.78 3.7-8.5 8.28-17.5 8.28s-13.74-4.6-17.53-8.28c-3.42-3.32-5.88-5.72-11.24-5.72s-7.83 2.4-11.24 5.72c-3.78 3.7-8.5 8.28-17.5 8.28s-13.74-4.6-17.52-8.28C956.58 11.4 954.1 9 948.75 9s-7.82 2.4-11.23 5.72c-3.8 3.7-8.5 8.28-17.52 8.28s-13.72-4.6-17.5-8.28C899.1 11.4 896.62 9 891.26 9s-7.82 2.4-11.23 5.72c-3.8 3.7-8.5 8.28-17.52 8.28s-13.7-4.6-17.5-8.28C841.6 11.4 839.12 9 833.76 9c-5.35 0-7.82 2.4-11.23 5.72-3.78 3.7-8.5 8.28-17.5 8.28-9.03 0-13.74-4.6-17.52-8.28C784.1 11.4 781.64 9 776.28 9s-7.82 2.4-11.23 5.72c-3.8 3.7-8.5 8.28-17.5 8.28-9.03 0-13.74-4.6-17.53-8.28C726.6 11.4 724.15 9 718.8 9s-7.82 2.4-11.23 5.72c-3.8 3.7-8.5 8.28-17.52 8.28-9 0-13.72-4.6-17.5-8.28C669.1 11.4 666.64 9 661.28 9s-7.83 2.4-11.25 5.72c-3.78 3.7-8.5 8.28-17.5 8.28S618.8 18.4 615 14.72C611.62 11.4 609.15 9 603.8 9c-5.37 0-7.83 2.4-11.25 5.72-3.78 3.7-8.5 8.28-17.5 8.28-9.03 0-13.74-4.6-17.52-8.28C554.13 11.4 551.65 9 546.3 9s-7.83 2.4-11.24 5.72c-3.8 3.7-8.5 8.28-17.52 8.28-9 0-13.72-4.6-17.5-8.28C496.6 11.4 494.13 9 488.8 9c-5.36 0-7.83 2.4-11.24 5.72-3.8 3.7-8.5 8.28-17.5 8.28-9.03 0-13.74-4.6-17.53-8.28C439.13 11.4 436.65 9 431.3 9c-5.37 0-7.83 2.4-11.24 5.72-3.8 3.7-8.5 8.28-17.52 8.28s-13.73-4.6-17.5-8.28C381.6 11.4 379.13 9 373.78 9c-5.37 0-7.83 2.4-11.24 5.72-3.8 3.7-8.5 8.28-17.52 8.28s-13.73-4.6-17.5-8.28C324.1 11.4 321.63 9 316.28 9s-7.83 2.4-11.25 5.72c-3.78 3.7-8.5 8.28-17.5 8.28-9.03 0-13.74-4.6-17.53-8.28C266.62 11.4 264.14 9 258.8 9c-5.37 0-7.84 2.4-11.25 5.72-3.78 3.7-8.5 8.28-17.5 8.28-9.03 0-13.74-4.6-17.53-8.28C209.12 11.4 206.65 9 201.3 9s-7.84 2.4-11.25 5.72c-3.78 3.7-8.5 8.28-17.5 8.28-9.03 0-13.74-4.6-17.53-8.28-3.4-3.32-5.88-5.72-11.24-5.72s-7.82 2.4-11.23 5.72c-3.8 3.7-8.5 8.28-17.52 8.28s-13.73-4.6-17.52-8.28C94.1 11.4 91.64 9 86.28 9s-7.82 2.4-11.24 5.72c-3.78 3.7-8.5 8.28-17.5 8.28-9.03 0-13.74-4.6-17.53-8.28C36.6 11.4 34.12 9 28.76 9s-7.83 2.4-11.24 5.72C13.72 18.42 9.02 23 0 23v-9c5.36 0 7.83-2.4 11.24-5.72C15.04 4.58 19.74 0 28.76 0S42.5 4.6 46.28 8.28C49.68 11.6 52.16 14 57.52 14s7.82-2.4 11.24-5.72C72.54 4.58 77.26 0 86.26 0S100 4.6 103.8 8.28c3.4 3.32 5.87 5.72 11.23 5.72s7.82-2.4 11.24-5.72c3.78-3.7 8.5-8.28 17.5-8.28s13.74 4.6 17.53 8.28c3.4 3.32 5.88 5.72 11.24 5.72s7.82-2.4 11.23-5.72c3.8-3.7 8.5-8.28 17.52-8.28 9 0 13.72 4.6 17.5 8.28 3.42 3.32 5.88 5.72 11.24 5.72s7.82-2.4 11.23-5.72c3.8-3.7 8.5-8.28 17.52-8.28 9 0 13.7 4.6 17.5 8.28 3.4 3.32 5.88 5.72 11.24 5.72s7.82-2.4 11.23-5.72c3.8-3.7 8.5-8.28 17.52-8.28 9 0 13.72 4.6 17.5 8.28 3.42 3.32 5.88 5.72 11.24 5.72s7.83-2.4 11.24-5.72c3.78-3.7 8.5-8.28 17.5-8.28 9.03 0 13.74 4.6 17.53 8.28 3.42 3.32 5.88 5.72 11.24 5.72s7.83-2.4 11.24-5.72c3.8-3.7 8.5-8.28 17.5-8.28 9.03 0 13.74 4.6 17.53 8.28 3.42 3.32 5.9 5.72 11.25 5.72s7.82-2.4 11.23-5.72c3.8-3.7 8.5-8.28 17.52-8.28 9 0 13.72 4.6 17.5 8.28 3.42 3.32 5.9 5.72 11.24 5.72 5.36 0 7.83-2.4 11.24-5.72 3.78-3.7 8.5-8.28 17.5-8.28 9.03 0 13.74 4.6 17.53 8.28 3.42 3.32 5.88 5.72 11.24 5.72s7.82-2.4 11.23-5.72c3.8-3.7 8.5-8.28 17.52-8.28 9 0 13.72 4.6 17.5 8.28 3.42 3.32 5.88 5.72 11.24 5.72s7.82-2.4 11.23-5.72c3.8-3.7 8.5-8.28 17.52-8.28S675 4.6 678.8 8.28c3.4 3.32 5.88 5.72 11.23 5.72 5.36 0 7.82-2.4 11.24-5.72 3.78-3.7 8.5-8.28 17.5-8.28s13.74 4.6 17.52 8.28c3.4 3.32 5.87 5.72 11.23 5.72 5.35 0 7.82-2.4 11.23-5.72 3.78-3.7 8.5-8.28 17.5-8.28C785.3 0 790 4.6 793.8 8.28 797.2 11.6 799.65 14 805 14s7.82-2.4 11.23-5.72c3.8-3.7 8.5-8.28 17.5-8.28 9.03 0 13.74 4.6 17.53 8.28 3.4 3.32 5.88 5.72 11.23 5.72s7.84-2.4 11.25-5.72c3.78-3.7 8.5-8.28 17.5-8.28C900.3 0 905 4.6 908.8 8.28 912.18 11.6 914.65 14 920 14s7.84-2.4 11.25-5.72c3.78-3.7 8.5-8.28 17.5-8.28s13.74 4.6 17.52 8.28C969.7 11.6 972.15 14 977.5 14s7.83-2.4 11.24-5.72c3.8-3.7 8.5-8.28 17.52-8.28s13.73 4.6 17.5 8.28c3.42 3.32 5.9 5.72 11.25 5.72 5.36 0 7.83-2.4 11.24-5.72 3.8-3.7 8.5-8.28 17.5-8.28s13.74 4.6 17.53 8.28c3.4 3.32 5.88 5.72 11.23 5.72s7.82-2.4 11.24-5.72c3.78-3.7 8.5-8.28 17.5-8.28s13.74 4.6 17.53 8.28c3.4 3.32 5.87 5.72 11.23 5.72v9z"/>
</svg>
