<svg xmlns="http://www.w3.org/2000/svg" width="1150" height="34" viewBox="0 0 1150 34">
  <path fill="#FFF" d="M1121.25 0c-14.37 0-14.37 14-28.75 14s-14.37-14-28.75-14-14.37 14-28.74 14-14.37-14-28.74-14c-14.38 0-14.38 14-28.75 14S963.14 0 948.77 0 934.4 14 920 14 905.65 0 891.27 0 876.9 14 862.5 14 848.15 0 833.77 0c-14.37 0-14.37 14-28.74 14S790.65 0 776.27 0c-14.37 0-14.37 14-28.74 14-14.38 0-14.38-14-28.75-14s-14.37 14-28.75 14c-14.37 0-14.37-14-28.74-14-14.4 0-14.4 14-28.76 14-14.38 0-14.38-14-28.75-14-14.4 0-14.4 14-28.76 14S560.67 0 546.3 0s-14.38 14-28.76 14c-14.37 0-14.37-14-28.74-14-14.38 0-14.38 14-28.75 14-14.38 0-14.38-14-28.76-14s-14.38 14-28.76 14c-14.37 0-14.37-14-28.75-14s-14.38 14-28.76 14S330.67 0 316.3 0s-14.38 14-28.76 14S273.16 0 258.8 0c-14.4 0-14.4 14-28.76 14-14.37 0-14.37-14-28.75-14s-14.38 14-28.76 14S158.16 0 143.8 0c-14.4 0-14.4 14-28.77 14-14.38 0-14.38-14-28.76-14S71.9 14 57.52 14 43.14 0 28.76 0 14.38 14 0 14v20h1150V14c-14.37 0-14.37-14-28.75-14z"/>
</svg>
