<svg xmlns="http://www.w3.org/2000/svg" width="21.77" height="21.33" viewBox="53.12 53.19 21.77 21.33">
  <path fill="#231F20" d="M74.88 65.34c0-2.4-.34-4.8-.3-7.14-.02-.8-.1-1.53-.15-2.28-.1-.3-.12-.7-.16-1.06-.26-.17-.22-.64-.45-.83-.42-.24-1.2-.12-1.75-.22-.65-.02-1.25-.1-1.9-.15-1.93-.1-3.97-.07-6-.07-2 0-3.94-.15-5.7-.38h-2.2c-.08 0-.1.1-.2.07-.6.04-1.1.2-1.6.3-.22.13-.43.24-.7.3-.13.2-.5.16-.6.4-.2.2.2.44 0 .6v.9c.17.14.03.6.08.84v1c-.02 1.28.13 2.4.07 3.72.47 2.76.38 6.54.08 9.4.15.6.36 1.12.45 1.76.26.48.34 1.13.7 1.52.5.2 1.22.18 1.88.23.4.1.67.3 1.14.3 2.85-.2 5.5-.16 8.43-.23 2.7.24 5.8.2 8.28-.23.2-.13.12-.53.22-.76-.05-.37.2-.44.23-.75.13-2.4.16-4.8.15-7.2zM61.9 59.1c.76-.14 1.48-.33 2.43-.3.7.08 1.3.3 1.9.46.1.2-.25.55.15.7V60c.06.02.15 0 .15.08.44.03.8.17 1.06.38.44.05.53.47 1.13.3-.1.2-.08.52-.07.83.32 1.2.47 2.82.3 4.26-.17.17-.22.45-.3.7-.32.3-.5.77-.84 1.05-.1.25-.25.42-.45.54-.12.22-.2.46-.46.53-.3.17-.57 0-.83-.07-.44.16-.9.3-1.2.6-.83-.1-1.66-.17-2.44-.3-.24-.14-.5-.27-.84-.3-.23-.2-.5-.37-.84-.46-.1-.13-.34-.12-.46-.23-.2-.02-.23-.22-.45-.22-.12-.4-.45-.62-.53-1.06-.23-.33-.3-.8-.46-1.22-.04-1.43.1-2.7.38-3.8.35-.58.78-1.08 1.14-1.66.25.02.36-.1.38-.3.3.05.43-.08.68-.08.26 0 .27-.3.46-.45zm-1.67-2.72c-.12-.27-.07-.7-.08-1.06 0-.3.28-.28.3-.54 0-.07-.1-.05-.14-.07.13-.14.7-.1.84 0 .13.55-.35.46-.53.7.02.16.33.02.47.07.02.85-.06 1.5 0 2.2h-.46c0 .23.24.23.47.23-.06.28.1.36.07.6-.23.16-.72.05-1.06.08-.1-.6.23-1.38.15-2.2zm-.68-1.6c.08 0 .13.02.15.08.18.25 0 .68-.08.9-.17-.17-.02-.67-.07-.98zm.15 1.83c-.13-.06-.17-.23-.15-.45.13.07.16.24.15.46zm0 1.37c-.06.14-.08-.04-.08-.15.06-.14.08.05.08.15zm-.15.23c.17-.02.08.22.22.23 0 .2-.28.18-.38.07.03-.1.1-.2.15-.3zm-2.36-1.22c0-.1 0-.2-.08-.22-.08-.74.13-1.42 0-1.98.25-.15.77-.04 1.14-.07v1.15c-.1.06-.2.1-.38.07-.06.28.32.13.38.3 0 .86-.06 1.78.15 2.44-.56-.06-.9.1-1.43.07.1-.6-.02-1.43.53-1.6-.02-.13-.26-.04-.3-.15zm-.54 0c-.2.03-.22-.53-.08-.6.33 0 .25.5.08.6zm-.15 1c.1-.32.04-.3.08-.7.23.02.26.78-.07.7zm.24-2.06c-.27.06-.28-.26-.16-.38.27-.05.28.27.16.38zm0-1.14c.03.16-.06.2-.08.3-.17.03-.08-.2-.23-.22.03-.1.2-.06.3-.08zm-.23 3.73c.16-.03.12.35-.07.23.04-.06.08-.12.08-.22zm-.67-3.72c.02.26-.44.32-.38 0h.38zm-1 .08c-.03.22-.32.18-.37.38-.22-.17.08-.47.38-.38zm-.45.76c.23-.2.45-.4.7-.6-.03-.13.06-.14.06-.24h.23c.1.38-.26.3-.3.53.02.14-.08.15-.08.24 0 .34.1.6.07 1-.27 0-.28.27-.6.22 0-.43-.14-.68-.1-1.14zm.08 3.26v-1.6l.6-.52c.3.5.2 1.4.46 1.9-.27.15-.75.1-1.06.22zm18.22 11.1c-.1.94-.16 1.96-.38 2.8-2.9.12-6.02 0-8.88.15-.2.04-.27-.03-.23-.23-.26 0-.27.25-.54.23.2-.34.44-.9.15-1.3-.8.02-.8.83-1.13 1.3-.68-.05-1.14.13-1.82.07.18-.7.75-1.02.9-1.74-.4-.55-.98.14-1.2.46-.2.48-.56.8-.76 1.3h-1c.24-.48.5-.94.76-1.38.17-.5.62-.74.68-1.37-.16-.28-.42-.03-.68 0-.12.18-.27.34-.38.53-.23.38-.5.72-.7 1.14-.17.2-.32 0-.5.23-.4.27-.6.74-1 1-.18-.07.04-.37.15-.4.04-.17-.1-.54.07-.6.07-.37.22-.65.38-.9.12-.75.52-1.2.7-1.9-.57.1-.7.64-1 .98-.2.44-.54.77-.68 1.3-.18-.14-.03-.6-.08-.85.12-.58.3-1.1.38-1.74.13-.22.17-.54.23-.84.17-.2.04-.6-.08-.76-.22.03-.37.14-.45.3-.2-.02-.2.5-.3.3-.05-2.58-.46-4.8-.46-7.43.02-.33-.2-.42-.23-.68 1.64.03 3.13.1 4.8.23l-.3.38c-.16.07-.24.17-.4.3-.6 1.65-.97 3.98-.6 6.15.23.6.6 1.04 1 1.45.9.5 1.62 1.15 2.5 1.67 1.7.36 3.83.37 5.54 0 .23-.12.48-.22.68-.38 1.37-1.24 2.75-2.46 2.96-4.86v-1.36c-.2-1.6-.7-2.9-1.75-3.65.34-.22 1.1.05 1.67.08h.7c.4-.03.92-.06 1.43 0 .15.2.1.54.23.76-.06 1.7-.2 3.3-.15 5.1.1.45.13.98.24 1.44-.1.97-.24 1.9-.46 2.73zm.38-11.17c-.64-.1-1.23-.28-1.9-.37.07-.33.8 0 1-.23.37-.22.28-.92.3-1.5.02-.36.1-.65.07-1.07-.4-.95-1.78-.42-2.9-.46-.2.72-.46 1.8-.3 2.66.18.5 1.03.3 1.53.46-.14.32-.7.04-1 .06-.3-.08-.7-.05-.98-.15-2.28.1-4.28 0-6.52.16.1-1.25.06-2.46-.08-3.64h3.1c-.33.36-.9.5-1.28.83-.44.25-.86.5-1.14.9.25.15.54-.23.76-.37.36-.07.48-.38.84-.45.42-.44 1.1-.63 1.67-.9.37-.03.7 0 .98.06 1.3 0 2.47.12 3.8.07.62.15 1.46.07 1.98.3.1.3.23.58.3.92.02.97-.14 1.8-.22 2.7zm-5.85-3.7c.12-.06 0-.1 0 0zm0 0c-.52.14-1 .34-1.35.67.48-.2 1.06-.3 1.36-.68zm1.08.6c.1-.05 0-.1 0 0zm-1.75.9c.73-.15 1.18-.58 1.75-.9-.44 0-.6.3-1 .37-.2.22-.6.26-.75.54zm-.68-.83c-.1.05 0 .1 0 0zm-.7.6c.12-.04 0-.08 0 0zm-.06.08c.05.02.06-.03.06-.07-.06-.02-.07.03-.07.07zm-.1.08c.08 0 .08-.03.1-.08-.08 0-.08.03-.1.08zm-.82.6c.34-.13.6-.34.83-.6-.34.13-.6.35-.82.6zm2.27 1c.54-.05.75-.42 1.22-.54.28-.3.78-.4 1-.77-.57.03-.78.4-1.23.54-.28.3-.75.4-1 .76zm-2.27-1c-.32-.07-.02.23 0 0zm-.54.4c.03 0 .12-.05.08-.1-.02 0-.12.05-.07.1zm2.8.6c-.1.04.02.1 0 0zm-1.13 1.82c-.2-.24-.66-.24-.97-.38-.7-.04-1.23.1-1.75.23l-.9.45c-.27.17-.45.42-.77.53-.2.23-.34.5-.67.6 0 .23-.18.3-.3.4-.1.1-.1.3-.23.37 0 .12.03.3-.08.3.1 1.5.3 2.95.68 4.18.3.62.98.84 1.45 1.3.58.3 1.32.43 2.12.52.28-.05.55-.1.9-.08 1.22-.2 2.1-.73 2.82-1.44.1-.28.24-.5.45-.68-.26-.67.3-1.1.45-1.6 0-1.33-.2-2.47-.6-3.4-.26-.58-.92-.76-1.37-1.14-.06 0-.15 0-.15-.07-.27-.14-.73-.24-1.07-.08zm-3.4 4.32c-.1-.06-.1-.24-.15-.38.25-.08.12.23.15.37zm.08.3c.04-.1.07 0 .07.08-.04.12-.08 0-.07-.07zm.45-2.04c.02-.1.08-.05.08 0 0 .08-.07.04-.07 0zm1.67-2.13c-.2.26.04.58.08.84-.3-.04-.58-.9-.08-.84zm.38 3.95c-.04-.04.06-.1.08-.08.04.04-.06.1-.08.08zm.76 2.88c.03-.1.07 0 .15 0-.03.1-.16.08-.16 0zm2.2-2.58c-.23-.05-.14.2-.38.16.07-.15.12-.33.23-.45.12.02.16.13.14.3zm-1.14-3.8c.2.13.44.22.6.4.1.2.25.35.4.52.05.77.17 1.5.14 2.35-.26.1-.44.27-.68.38-.78 0-1.36-.2-1.9-.45l-.53-.76v-1.07c.17-.2.32-.4.45-.6.23-.14.5-.2.46-.62-.04-.05-.08-.1-.08-.22.16.05.25.16.38.23.32.03.4-.2.76-.14z"/>
</svg>
