<svg xmlns="http://www.w3.org/2000/svg" width="100.68" height="76.89" viewBox="247.3 382.56 100.68 76.89">
  <path fill="#63d1bb" d="M344.25 400.7s-.92-7-3.78-10.07c-3.63-4.04-7.67-4.07-9.54-4.3-13.33-1.02-33.3-1.02-33.3-1.02h-.06s-19.97 0-33.3 1.03c-1.87.23-5.9.26-9.54 4.3-2.84 3.1-3.8 10.08-3.8 10.08s-.88 8.22-.88 16.43v7.7c0 8.2.95 16.42.95 16.42s.92 7 3.78 10.08c3.63 4.04 8.36 3.9 10.5 4.35 7.6.76 32.34 1.02 32.34 1.02s20-.03 33.33-1.05c1.87-.23 5.9-.25 9.54-4.3 2.83-3.07 3.78-10.08 3.78-10.08s.95-8.2.95-16.42v-7.7c-.03-8.23-.98-16.44-.98-16.44z"/>
  <g fill="#ffffff">
    <path d="M297.6 459.45c-1.02 0-24.95-.27-32.6-1.04h-.15l-.13-.03c-.27-.06-.67-.1-1.13-.17-2.5-.32-7.17-.93-10.85-5.02-3.35-3.6-4.37-10.77-4.48-11.57v-.04c-.05-.34-.97-8.46-.97-16.73v-7.7c0-8.27.87-16.38.9-16.72l.02-.06c.1-.8 1.16-7.93 4.47-11.56 4-4.44 8.53-4.9 10.7-5.12l.54-.06h.12c13.28-1.03 33.3-1.04 33.5-1.04h.07c.2 0 20.23 0 33.5 1.03h.14l.52.06c2.17.22 6.7.68 10.7 5.1 3.35 3.63 4.38 10.78 4.48 11.6v.03c.05.33.97 8.45 1 16.75v7.7c0 8.28-.93 16.4-.97 16.74v.04c-.1.8-1.15 7.96-4.47 11.56-4 4.44-8.53 4.9-10.7 5.12l-.54.06h-.14c-13.27 1.03-33.33 1.07-33.53 1.07h-.02zm-31.93-6.5c7.48.73 31.22 1 31.97 1 .66 0 20.13-.05 33.05-1.04.16 0 .36-.03.57-.05 1.83-.2 4.6-.47 7.18-3.33l.03-.03c1.82-2 2.85-6.94 3.07-8.56.06-.52.93-8.36.93-16.08v-7.7c-.03-7.76-.9-15.63-.95-16.1-.32-2.4-1.44-6.8-3.07-8.55l-.03-.03c-2.58-2.87-5.36-3.15-7.2-3.34l-.57-.06c-13.07-1-32.83-1-33.03-1h-.05c-.2 0-19.97 0-33.04 1l-.58.06c-1.83.2-4.6.47-7.18 3.34l-.02.02c-1.83 1.98-2.86 6.92-3.08 8.54-.07.6-.88 8.4-.88 16.1v7.7c0 7.74.87 15.6.93 16.07.32 2.4 1.43 6.8 3.06 8.55l.03.04c2.32 2.58 5.3 2.97 7.48 3.25.5.06.95.12 1.37.2z"/>
    <path d="M285.73 403.14v35.7L315.48 421"/>
  </g>
</svg>
