<svg xmlns="http://www.w3.org/2000/svg" width="24.83" height="24.33" viewBox="0 0 24.83 24.33">
  <path d="M17.32 24.33h-1.1c-4.92-.58-8.5-2.85-11.12-5.77C2.47 15.64.4 11.88 0 6.82V5.46c.1-.92.54-1.55 1.07-2.1.65-.65 1.63-1.5 2.52-1.54.65-.02 1.77.45 2.22 1.07.4.52.6 1.58.78 2.36.18.8.6 1.95.48 2.72-.17 1.2-1.76 1.7-2.23 2.57 1.55 3.72 4.1 6.46 7.47 8.35.85-.47 1.6-1.87 2.77-1.9.42 0 .96.22 1.4.35.47.14.9.32 1.3.48.7.27 1.96.62 2.38 1.2.44.62.68 1.62.58 2.24-.2 1.24-2.22 2.6-3.44 3.06zM12.53 1.53c5.95 0 10.77 4.82 10.77 10.77h1.53c0-6.8-5.5-12.3-12.3-12.3v1.53z"/>
  <path d="M12.53 9.33v1.55c.78 0 1.42.63 1.42 1.42h1.55c0-1.64-1.33-2.97-2.97-2.97zM12.53 6.25c3.34 0 6.06 2.7 6.06 6.05h1.57c0-4.22-3.42-7.64-7.64-7.64v1.6z"/>
</svg>
