<svg xmlns="http://www.w3.org/2000/svg" width="20.29" height="18.85" viewBox="264.2 370.96 20.29 18.85">
  <path fill="#231F20" d="M283.75 378.2h-3.15l-3.4-6.82c-.2-.37-.64-.52-1-.34-.38.2-.53.64-.35 1l3.07 6.15h-9.14l3.08-6.15c.18-.37.03-.82-.34-1-.37-.2-.82-.04-1 .33l-3.4 6.8h-3.16c-.42 0-.75.35-.75.76s.34.75.76.75h.15l.87 2.98c-.2.14-.32.35-.32.6 0 .4.3.7.7.74l1.66 5.8h12.7l1.66-5.8c.4-.03.7-.35.7-.74 0-.25-.13-.46-.32-.6l.86-3h.15c.42 0 .75-.33.75-.74s-.34-.75-.75-.75zm-4.18 10.1h-10.43l-1.23-4.27h12.9l-1.23 4.28zm1.65-5.77h-13.74l-.8-2.84h15.35l-.8 2.83z"/>
</svg>
