<svg xmlns="http://www.w3.org/2000/svg" width="23.49" height="20.17" viewBox="52.25 53.77 23.49 20.17">
  <path fill="#231F20" d="M75.7 57.85c-.22-.36-.9-.27-1.4-.37h-1.1c.13-.35.33-.64.5-.96.06-.44.26-.73.23-1.26.13-.17.18-.42.3-.6.1-.14.24-.47.07-.66-.05-.22-.3-.25-.6-.22-.08.03-.16.08-.2.15-.46.43-.8 1-1.28 1.4h-.07c-.1 0-.03.05-.07.08l-.37.23c-.28.18-.54.45-.88.52-.53-.2-1.16-.33-1.86-.37-1.15.1-2.3.22-3.03.74-.92.35-1.48 1.04-2.15 1.63-.05.32-.35.4-.37.74 0 .04 0 .08-.07.07.05.24-.05.34-.07.52 0 .12.2.42 0 .5-.82-.1-1.5-.62-2.15-.96-.7-.36-1.46-.6-2.06-1.1-.72-.33-1.26-.83-1.78-1.34-.2-.32-.54-.5-.67-.9-.4-.16-.18-.9-.75-.88-.3-.05-.34.2-.44.37-.06.2-.35.22-.36.5 0 .05-.02.1-.08.08-.17 1.1-.53 2-.52 3.26.13.42.35.74.6 1.04-.42.05-.72.22-.9.52-.05 1.07.38 1.65.75 2.3.12.38.34.68.58.96.02.23.2.3.3.44.02.1.12.13.15.23-.04.1.28.18.07.22-.4.13-1.02.07-1.26.37-.1.28-.1.83 0 1.1.03.25.28.27.3.53.5.42 1.08.75 1.63 1.1.57.18 1.2.28 1.85.38-.1.34-.34.55-.6.74-.78.38-1.84.48-2.74.74-.55.05-.95.24-1.55.23-.34.13-.86.08-1.12.23-.1.07-.1.1-.2.22-.14.4.1.74.44.9 0 .24.22.26.37.36.1.18.26.3.45.37.55.48 1.27.77 1.93 1.12.83.18 1.65.38 2.52.52.9.12 1.9.12 2.82.22h.96c.5.13 1.23.06 1.85.08.1-.1.32-.08.52-.08.52-.27 1.2-.38 1.63-.74.58-.24 1-.64 1.56-.9.87-.75 1.94-1.3 2.52-2.36.2-.2.35-.44.44-.74.27-.15.4-.45.6-.66.4-.4.7-.93 1.03-1.4.32-.5.58-1.06.9-1.56-.02-.4.3-.48.3-.9.18-.22.17-.65.36-.87-.04-.26.02-.42.06-.6.05-1.28-.04-2.42-.3-3.4.6-.16 1.2-.3 1.64-.6.52-.2 1-.6.8-1.28zm-3.4 4.08c-.15.86-.62 1.4-1.04 2 .06.38-.1.54-.07.9-.17.3-.3.64-.38 1.03-.2.27-.34.6-.52.9-.37.54-.78 1.04-1.2 1.54-.37.57-.9.97-1.32 1.5-.42.48-.94.87-1.4 1.32-.48.17-.9.4-1.27.67-.22.08-.45.17-.66.28-.17.15-.5.15-.66.3-1.1.14-2.3.16-3.56.14-1.03-.1-2.1-.16-3.04-.37-.92-.2-1.5-.7-2.3-1.04.16-.23.64-.14.97-.2.03-.17.4 0 .44-.16.25.06.28-.1.5-.07.57-.2 1.24-.3 1.72-.6.28-.13.4-.42.66-.58.04-.2.1-.35.23-.46.05-.27.2-.44.15-.8.1-.22.3-.36.3-.68-.07-.15-.13-.32-.3-.37-.02-.2-.37-.08-.44-.23-.25.03-.4-.03-.58-.08-.16-.05-.5.08-.52-.08-.84-.02-1.3-.43-1.86-.74.44-.26 1.04-.35 1.34-.74.5-.08 1.06-.13 1.1-.67 0-.72-.76-.66-1.32-.8-.78-.67-1.2-1.7-1.78-2.53.24-.16.56-.23.74-.45.45.05.54-.26.67-.53 0-.5-.35-.6-.6-.8-.27-.22-.48-.47-.67-.75 0-.82-.03-1.65.07-2.37.06-.02.07.02.07.07.23.44.56.77.82 1.2.52.34.9.84 1.54 1.1.46.4 1.1.62 1.56 1.04.6.26 1.16.57 1.7.88.67.2 1.06.68 2 .6l.6-.3c.26-.46-.06-1.08.15-1.63.25-.65.8-1.02 1.26-1.47.3-.16.56-.34.82-.52.35-.1.68-.2.97-.36.36-.02.7-.08 1.02-.15h1.26l.74.14c.2.14.38.3.67.37.78.7 1.26 1.7 1.4 3.05-.13.48.05.87 0 1.48zm.3-5.63c-.14.34-.24.7-.6.8-.02-.1-.12-.1-.15-.2 0-.22.2-.2.3-.3.16-.1.24-.25.44-.3 0-.1.1-.05 0 0zm-5.5 3.04c.17.13.3.3.53.37.1.23.3.34.6.38.04-.15.34-.05.36-.22.17-.03.16-.23.3-.3-.03-.55-.14-1-.38-1.33-.76-.43-1.68.04-1.4 1.1z"/>
</svg>