<svg xmlns="http://www.w3.org/2000/svg" width="85.59" height="35.03" viewBox="32.46 20.22 85.59 35.03">
  <path d="M36.64 46.52c-.02-3.48-.26-6.94-.36-10.4 0-.35 0-.7-.02-1.03l.15.35c.55 1.35 1.1 2.66 1.85 3.92.73 1.25 1.1 2.58 1.52 3.94-.16.2-.26.4-.2.6-.03.16.06.25.2.3.55.47 1.56.24 2.13 0 .24-.1.47-.22.7-.35.28-.18.74-.57.6-.98l-.07-.23c.4-1.07.6-2.18.82-3.3.23-1.22.66-2.36 1.1-3.5l.12 1.56c.17 2.15.03 4.27 0 6.43 0 .7.05 1.37.2 2.07.05.3.3 1.52.22 1.58-.52.48-.37 1.06.32 1.2.77.18 1.75-.08 2.33-.6 1-.95.53-2.4.3-3.58-.38-1.98.08-4.2.02-6.2-.06-2.25-.43-4.5-.4-6.76.03-1.83.33-3.72-.3-5.47l.12-.6c.15-.88-2.76-.42-3.22.4-.3.22-.44.5-.32.8l.1.2c-.56 2.7-1.33 5.33-2.22 7.94-.34 1-.75 2-1.1 3-.48-.94-.98-1.86-1.38-2.86-1.15-2.9-2.2-5.8-3.6-8.6.15-1.28-2.7-1.14-3.27.03-.7 1.42-.6 2.86-.38 4.4.26 1.7.3 3.4.32 5.14.04 3.36.3 6.7.35 10.05-.3.33-.4.74-.08 1.16.13.2.3.33.48.47.75.63 2.94.1 2.94-1.05zM54.83 28.14c-.08-.6-3.4.1-3.3.9.26 1.77.17 3.55.14 5.34-.03 1.72.4 3.28.62 4.97.2 1.74-.1 3.5.1 5.24.1.8.64 2.3.1 3-.37.45 1.22.3 1.3.28.64-.12 1.5-.33 1.93-.87.56-.7.17-2.04.05-2.8-.27-1.75-.1-3.55-.16-5.3-.06-1.68-.65-3.25-.65-4.95 0-1.95.15-3.87-.14-5.8zM57.96 34.8c.9 2.5 4.65 1.32 6.55 1.46 3.25.24 2.28 4.6 2.32 6.64.02 1.1 1 2.9.18 3.8-.5.56-1.67.6-2.35.65-.7.05-1.86.26-2.3-.4-.85-1.2.06-3.2-.1-4.56-.12-.8-3.44-.1-3.3.87.28 2.2-1.2 5.18 2 5.56 2.07.24 4.38-.14 6.33-.78 1-.34 1.94-.8 2.73-1.5.88-.8.6-2 .36-3-.57-2.46.6-5.3-1-7.45-1.73-2.35-4.95-.66-7.2-1.3-1.16-.33-1.18-1.9-1.17-2.86 0-1.2-.1-2.3-.24-3.5-.1-.88-.02-1.78.63-2.44.1-.12.7-.28.67-.28.3-.05.57-.06.9-.07 1.3-.06 3.88.2 3.38 2.1-.22.84 3.03.35 3.27-.54 1.02-3.87-6.14-3.12-8.16-2.6-1.86.5-3.92 1.57-4.02 3.72-.06 1.02.23 2 .27 3.02.06 1.15-.15 2.32.26 3.45zM72.4 36.66c-.04 1.8-.2 3.6-.2 5.4 0 .9.14 1.84.27 2.74.12.85.4 1.97.15 2.8-.2.65 3 .24 3.26-.6.46-1.48-.2-3.4-.34-4.9-.15-1.46-.04-2.95.07-4.43 1.72-.1 3.43-.24 5.13 0 .07 1.16.16 2.3.27 3.47.1.98.15 1.95.16 2.93.02.86.12 2.1-.18 2.92-.65 1.72 2.65 1.58 3.13.3.6-1.6.44-3.55.34-5.2-.13-2.07-.4-4.1-.47-6.17-.1-3.2-.58-6.33-.6-9.5 0-1.68-3.33-1.1-3.33.27 0 3.04.42 6.04.57 9.07.02.06.02.12.02.18-1.64 0-3.28.15-4.93.2.17-3.9-.52-7.76-.37-11.66.02-.5-3.26-.1-3.3.87-.14 3.78.5 7.52.38 11.3zM86.5 42.03c-.26.26-.17.42.04.5 0 1.48-.05 2.96-.18 4.43-.4.63.4.96.9.96h.1c.62 0 2.2-.3 2.28-1.15.17-1.77.2-3.53.2-5.3 1.34-1.44 2.43-3.05 3.4-4.74.66 1.24 1.26 2.5 1.7 3.86.72 2.3 1.93 4.42 2.63 6.74.46 1.52 3.75.62 3.3-.9-.7-2.3-1.86-4.45-2.64-6.74-.8-2.32-2-4.36-3.05-6.57.85-1.64 1.7-3.28 2.47-4.96.7-1.52 1.22-3.2 2.6-4.28.48-.4.46-.77-.22-.82-.74-.05-1.74.16-2.33.63-1.25.98-2.05 2.17-2.7 3.6-.78 1.73-1.6 3.43-2.45 5.12l-.2.37c-.4.26-.65.64-.53 1.06-.67 1.3-1.35 2.63-2.1 3.88-.26-4.66-.8-9.3-.97-13.98-.04-1.07-3.35-.4-3.3.9.2 5.77 1.02 11.54 1.08 17.33l-.04.03zM118.03 35.8c-.18-.7-1.16-.72-1.92-.65 0-.28 0-.56-.02-.85-.1-2.24-.13-4.53-.32-6.76-.18-2.07-1.34-2.8-3.35-2.74-2.03.08-4.4.45-6.3 1.2-2.2.84-3.4 2.46-3.83 4.77-.47 2.54.2 5.24.3 7.8.14 2.94.07 5.9.06 8.85 0 .48 3.3.03 3.3-.9 0-2.32.04-4.66 0-7 0-.7-.04-1.37-.1-2.06 1.17-.5 3.12 0 4.27.12.93.1 1.83-.14 2.73-.24.02 1.94.1 3.9.17 5.85.04 1 .4 2.96-.3 3.8-.36.42 1.25.28 1.32.27.66-.13 1.48-.34 1.93-.87.8-.94.4-3.2.34-4.32-.07-1.6-.1-3.22-.13-4.83.97-.14 2.04-.73 1.86-1.45zm-6.67-.16c-1.92-.05-3.82-.35-5.65.03l-.24-3.15c-.13-1.96.1-4.7 1.93-5.9.48-.3 1.4-.26 1.97-.36.82-.15 1.65-.33 2.38.16 1.02.67.77 3.08.77 4.1 0 1.7.18 3.37.26 5.06-.46.04-.94.07-1.42.06zM51.16 24.32c-.05.18 0 .36.12.5v.4c.07.2.2.34.37.44.33.2.74.23 1.1.2.45-.04.9-.2 1.26-.44l.22-.18c.44-.3.82-.7.62-1.15-.43-.94-.36-1.9-.35-2.88 0-.8-.83-1.05-1.52-1-.6.06-1.82.5-1.83 1.3 0 .83-.06 1.7.1 2.5l-.1.3zM112.74 53.5c-1.56-.58-3.3-.6-4.85-.78-1.62-.17-3.26-.4-4.9-.56-1.64.05-3.3.02-4.97.13l-4.88.25c-6.5.3-13 .26-19.52.1-6.5-.1-13.04-.47-19.63-.44-3.3 0-6.56.1-9.86.26-1.63.28-3.24.5-4.9.9-1.62.4-3.15.92-4.8 1.06 1.63.36 3.34.3 4.96.3 1.58 0 3.25.14 4.88.23 3.23-.18 6.48-.25 9.73-.25 6.5-.03 13.02.32 19.57.45 6.55.14 13.12.18 19.7-.1l4.9-.28c1.6-.07 3.2-.13 4.82-.07 1.62-.15 3.25-.33 4.9-.53 1.68-.24 3.23-.63 4.87-.5h.07v-.06c.03-.17-.03-.3-.03-.47-.03.12-.03.26-.06.38z"/>
</svg>
