<svg xmlns="http://www.w3.org/2000/svg" width="101.61" height="34.06" viewBox="0 0 101.61 34.06">
  <path d="M19.14 21.5c-.1-2.7-.5-5.35-.48-8.04.03-2.17.4-4.4-.36-6.5l.14-.7c.2-1.05-3.27-.5-3.8.46-.36.28-.53.6-.4.96.05.08.08.17.1.26-.64 3.2-1.56 6.3-2.6 9.4-.4 1.2-.9 2.36-1.3 3.54-.6-1.1-1.17-2.2-1.65-3.38-1.38-3.43-2.62-6.9-4.3-10.2.2-1.53-3.2-1.37-3.87.03-.8 1.7-.7 3.4-.44 5.2.3 2.06.35 4.06.37 6.13.05 3.97.36 7.94.42 11.9-.37.4-.47.9-.1 1.4.16.2.36.37.57.54.9.72 3.5.1 3.5-1.27-.02-4.13-.32-8.24-.43-12.36 0-.4 0-.8-.02-1.2.06.13.1.28.17.42.63 1.6 1.3 3.16 2.18 4.65.86 1.48 1.3 3.06 1.8 4.67-.2.22-.3.47-.23.7-.04.2.07.3.25.37.64.54 1.84.27 2.5 0 .3-.14.57-.28.83-.44.35-.2.9-.68.73-1.16l-.1-.28c.48-1.27.72-2.6.98-3.93.27-1.43.78-2.8 1.3-4.14l.15 1.86c.2 2.55.02 5.07 0 7.62 0 .85.05 1.63.22 2.46.06.35.36 1.8.28 1.9-.6.55-.44 1.25.38 1.43.92.2 2.08-.1 2.77-.75 1.2-1.1.63-2.84.36-4.24-.44-2.34.1-4.96.04-7.34zM27.5 22.17c-.08-2-.77-3.86-.78-5.87 0-2.3.2-4.6-.15-6.9-.1-.7-4.06.1-3.92 1.06.3 2.1.2 4.23.16 6.36-.03 2.04.48 3.9.74 5.9.27 2.05-.08 4.16.15 6.2.1.98.74 2.76.08 3.6-.42.53 1.47.34 1.55.32.77-.14 1.8-.4 2.3-1.04.66-.83.2-2.42.06-3.36-.33-2.05-.12-4.2-.2-6.27zM43.83 18.85c-2.06-2.78-5.9-.78-8.56-1.54-1.38-.38-1.4-2.26-1.4-3.4 0-1.4-.1-2.72-.27-4.13-.12-1.05-.02-2.12.75-2.9.14-.15.86-.34.8-.34.36-.07.68-.08 1.08-.1 1.54-.06 4.6.23 4 2.5-.25 1 3.6.42 3.9-.65 1.2-4.6-7.3-3.72-9.7-3.08-2.2.6-4.64 1.85-4.77 4.4-.06 1.22.27 2.38.33 3.6.05 1.38-.2 2.76.27 4.1 1.1 3 5.52 1.58 7.78 1.75 3.85.3 2.7 5.47 2.75 7.88.03 1.3 1.18 3.43.2 4.5-.58.67-1.97.7-2.78.78-.8.08-2.2.32-2.74-.45-1-1.42.1-3.8-.12-5.43-.13-.92-4.07-.1-3.92 1.05.34 2.63-1.4 6.15 2.4 6.6 2.44.3 5.2-.16 7.5-.93 1.2-.4 2.3-.94 3.24-1.8 1.04-.93.7-2.34.42-3.54-.68-2.92.73-6.28-1.17-8.85zM61.16 18.66c-.13-3.78-.7-7.5-.7-11.3-.02-1.97-3.97-1.3-3.97.35 0 3.62.5 7.17.67 10.77 0 .08 0 .15.02.22-1.96-.03-3.9.17-5.87.24.2-4.63-.6-9.23-.43-13.86.02-.58-3.88-.1-3.92 1.05-.17 4.48.6 8.92.45 13.4-.06 2.13-.24 4.26-.25 6.4 0 1.1.17 2.18.32 3.26.15 1 .5 2.32.2 3.3-.25.78 3.55.3 3.85-.7.54-1.77-.22-4.03-.4-5.83-.18-1.72-.05-3.5.08-5.25 2.03-.13 4.06-.3 6.08 0 .1 1.37.2 2.75.33 4.13.1 1.15.18 2.3.2 3.47 0 1.02.14 2.5-.23 3.46-.77 2.06 3.15 1.9 3.73.37.7-1.87.5-4.2.38-6.17-.14-2.44-.47-4.87-.55-7.32zM78.1 23.14c-.95-2.76-2.4-5.18-3.63-7.8 1-1.95 2.02-3.9 2.93-5.9.83-1.8 1.45-3.8 3.08-5.08.58-.45.55-.9-.25-.95-.88-.05-2.07.2-2.77.75-1.5 1.16-2.43 2.56-3.2 4.27-.93 2.05-1.9 4.06-2.92 6.07l-.22.44c-.5.3-.8.76-.64 1.26-.8 1.56-1.6 3.12-2.5 4.6-.3-5.52-.95-11.05-1.15-16.6-.04-1.26-3.97-.47-3.92 1.06.26 6.87 1.23 13.72 1.3 20.6-.02 0-.03.02-.05.04-.3.3-.2.5.05.6 0 1.75-.05 3.5-.2 5.25-.48.75.46 1.14 1.08 1.14h.1c.73 0 2.62-.36 2.7-1.37.2-2.1.26-4.2.25-6.3 1.6-1.7 2.9-3.62 4.05-5.63.76 1.48 1.48 2.98 2 4.6.85 2.73 2.3 5.25 3.12 8 .54 1.8 4.46.74 3.92-1.05-.83-2.75-2.2-5.3-3.13-8zM101.6 18.5c-.22-.83-1.38-.85-2.28-.77 0-.33-.02-.67-.04-1-.12-2.67-.16-5.38-.4-8.04-.2-2.46-1.57-3.34-3.96-3.25-2.42.1-5.23.52-7.48 1.4-2.6 1-4.06 2.93-4.56 5.68-.55 3 .24 6.22.37 9.25.16 3.5.07 7 .06 10.52 0 .57 3.93.03 3.93-1.05 0-2.78.04-5.55 0-8.33 0-.82-.05-1.63-.1-2.44 1.37-.6 3.7 0 5.05.14 1.1.1 2.17-.17 3.24-.3.02 2.32.1 4.64.2 6.95.05 1.18.48 3.53-.35 4.5-.44.53 1.48.35 1.56.34.8-.14 1.76-.4 2.3-1.03.95-1.12.45-3.8.4-5.13-.08-1.9-.1-3.82-.14-5.74 1.14-.14 2.4-.85 2.2-1.7zm-14.63-.15c-.1-1.24-.22-2.5-.3-3.74-.16-2.32.12-5.58 2.3-7 .57-.37 1.66-.3 2.34-.43.98-.18 1.97-.4 2.84.2 1.2.8.9 3.65.9 4.86 0 2 .22 4 .32 6-.55.06-1.1.1-1.68.08-2.3-.04-4.54-.4-6.7.05zM24.1 6.7c.53-.05 1.05-.23 1.48-.52l.26-.22c.52-.34.97-.83.73-1.36-.5-1.1-.42-2.23-.42-3.4 0-.97-.96-1.26-1.78-1.2-.72.07-2.17.6-2.17 1.53 0 1-.07 2.02.1 3-.04.1-.07.23-.1.35-.05.2.02.42.14.6v.12l.02.34c.07.23.22.4.43.53.38.23.87.27 1.3.23z"/>
</svg>
